<svg xmlns="http://www.w3.org/2000/svg" height="98" width="360" viewBox="-5.51807 -36.37445 304.48994 120.2467"><g style="line-height:0%;-inkscape-font-specification:'Cordia New'" font-weight="400" font-size="72.0547" font-family="Cordia New" letter-spacing="-2.6583" word-spacing="0" fill="#59461b"><path style="-inkscape-font-specification:'Aliquam Ultra-Light'" d="M31.3607 50.415c0 4.9303-1.3246 8.6766-3.9736 11.2391-2.6491 2.5625-6.432 3.8437-11.3484 3.8437-4.0104 0-7.2568-.9427-9.739-2.828-2.7678-2.1273-4.1998-5.1486-4.296-9.0638h1.4335c.1427 3.48 1.4312 6.1384 3.8654 7.975 2.1953 1.6435 5.0833 2.4652 8.664 2.4652 9.3085 0 13.9628-4.5437 13.9628-13.6311V39.03h-.1442c-.7153 3.1909-2.4692 5.753-5.2617 7.6863-2.7926 1.9333-5.8598 2.9-9.2015 2.9-4.9165 0-8.7594-1.8124-11.5287-5.437C1.2644 40.8924 0 36.6866 0 31.5616c0-5.2208 1.3125-9.5226 3.9376-12.9053 2.912-3.6748 6.8736-5.5122 11.8848-5.5122 3.2936 0 6.2534 1.0153 8.8792 3.046 2.6257 2.0307 4.3203 4.6407 5.0836 7.8301h.1442V14.0137h1.4313zm-1.5034-18.8534c0-4.5924-1.1698-8.4833-3.5093-11.6728-2.625-3.5287-6.1336-5.293-10.5256-5.293-4.5815 0-8.1855 1.7156-10.812 5.147-2.386 3.0936-3.5792 7.0332-3.5792 11.8188 0 4.6898 1.1217 8.5327 3.3651 11.529 2.5304 3.3841 6.0149 5.0762 10.4536 5.0762 4.5348 0 8.1628-1.6434 10.884-4.9302 2.4822-3.0936 3.7234-6.9852 3.7234-11.675zm38.2259 1.2326c0 5.414-1.408 9.9585-4.2238 13.6333-3.0563 4.0598-7.1854 6.0898-12.3874 6.0898-5.1554 0-9.2845-2.03-12.3874-6.0898-2.7693-3.6748-4.1539-8.2192-4.1539-13.6333 0-5.3654 1.4087-9.9091 4.226-13.6312 3.1029-4.0126 7.2313-6.0189 12.3852-6.019 5.1554.0001 9.2612 2.0308 12.3175 6.092 2.8158 3.6734 4.2237 8.1928 4.2238 13.5582zm-1.4334 0c0-4.9302-1.2645-9.1118-3.7934-12.5447-2.8174-3.7692-6.5889-5.6538-11.3145-5.6538-4.7257 0-8.4964 1.8846-11.3123 5.6538-2.577 3.3842-3.8655 7.5658-3.8655 12.5447 0 5.0276 1.2645 9.2334 3.7934 12.6176 2.8173 3.7707 6.6121 5.656 11.3844 5.656 4.7737 0 8.5452-1.8853 11.3145-5.656 2.5289-3.4328 3.7933-7.6387 3.7934-12.6176zm37.3408 0c0 5.414-1.408 9.9585-4.2238 13.6333-3.0562 4.0598-7.1854 6.0898-12.3874 6.0898-5.1554 0-9.2845-2.03-12.3873-6.0898-2.7693-3.6748-4.154-8.2192-4.154-13.6333 0-5.3654 1.4087-9.9091 4.226-13.6312 3.103-4.0126 7.2313-6.0189 12.3853-6.019 5.1553.0001 9.2612 2.0308 12.3174 6.092 2.8159 3.6734 4.2238 8.1928 4.2238 13.5582zm-1.4334 0c0-4.9302-1.2645-9.1118-3.7933-12.5447-2.8174-3.7692-6.5889-5.6538-11.3145-5.6538-4.7257 0-8.4965 1.8846-11.3123 5.6538-2.577 3.3842-3.8655 7.5658-3.8655 12.5447 0 5.0276 1.2645 9.2334 3.7934 12.6176 2.8173 3.7707 6.612 5.656 11.3844 5.656 4.7737 0 8.5452-1.8853 11.3145-5.656 2.5288-3.4328 3.7933-7.6387 3.7933-12.6176zm34.7625 18.8534h-1.4313V41.1344h-.1442c-.9542 3.4314-2.7678 6.1864-5.441 8.265-2.673 2.0786-5.7759 3.1179-9.3085 3.1179-5.0592 0-9.0208-2.0543-11.8848-6.1628-2.5303-3.6261-3.7955-8.1219-3.7955-13.4873 0-5.2695 1.2885-9.7653 3.8655-13.4873 2.8639-4.1572 6.8022-5.872 11.8148-5.8721 3.6754 0 6.826 1.0032 9.4517 3.0094 2.6258 2.0064 4.3917 4.7983 5.2978 8.3757h.1442V0h1.4313zm-1.4313-18.7804c0-5.2208-1.1698-9.4503-3.5093-12.6885-2.625-3.722-6.4198-5.583-11.3844-5.583-4.6295 0-8.2335 1.9333-10.8119 5.7999-2.2914 3.3842-3.4372 7.5414-3.4372 12.4716 0 4.9789 1.1217 9.1361 3.3651 12.4716 2.5784 3.8194 6.2064 5.729 10.884 5.729s8.401-1.9096 11.1703-5.729c2.4823-3.3842 3.7234-7.5414 3.7234-12.4716z" font-weight="200" font-family="Aliquam" letter-spacing="-1.3" word-spacing="-.85"/><path d="M144.7246 51.6476V14.047h4.8346v7.5617c1.445-2.6672 2.3232-4.194 3.5469-5.0438 1.2236-.8497 2.7755-2.1597 4.1479-2.6818 1.8017-.6855 4.375-1.4708 6.468-.3957l.0856 5.3249c-1.5384-.9205-5.134.1867-6.8683.9704-1.2531.5663-2.8204 1.3604-3.694 2.4276-1.0262 1.2536-1.9575 1.7996-2.4236 3.2866-.6993 2.266-.9796 3.7745-.9796 6.4653v19.6855zm23.0174-21.6279h23.7418c-.3203-3.622-1.2278-6.3385-2.7225-8.1496-2.2955-2.811-5.2715-4.2166-8.9282-4.2166-3.3097 0-6.0922 1.1217-8.3476 3.3652s-3.5032 5.2438-3.7434 9.001zm23.0489 9.6172l5.915-.0674c-1.0255 3.8474-3.219 7.617-5.9926 9.7413-2.7737 2.1244-6.3165 3.1865-10.6284 3.1865-5.4307 0-9.7368-1.6935-12.9183-5.0807-3.1816-3.387-4.7723-8.1373-4.7723-14.2507 0-6.3258 1.6082-11.2353 4.8247-14.7287 3.2165-3.4933 7.3886-5.24 12.5163-5.24 4.9645 0 9.02 1.7113 12.1667 5.1338 3.1465 3.4226 4.7198 8.2377 4.7198 14.4455 0 .3776-.0117.9441-.035 1.6994h-29.0612c.233 4.1307 1.5827 8.1753 3.6571 10.3704 2.0744 2.1952 5.8372 3.2927 8.9372 3.2927 2.3074 0 5.1586-1.3974 6.7902-2.6248 1.6315-1.2274 2.9251-3.1865 3.8808-5.8773zm33.3736 7.3726c-2.3308 2.0063-4.5742 3.4225-6.7301 4.2487-2.156.826-4.4693 1.2391-6.94 1.2391-4.0788 0-7.2137-1.009-9.4046-3.0271-2.191-2.0181-3.2864-4.5968-3.2864-7.7361 0-1.8411.4137-3.5229 1.2411-5.0453.8274-1.5225 1.9112-2.744 3.2514-3.6645 1.3402-.9205 2.8494-1.6168 4.5276-2.089 1.2353-.3304 3.1-.649 5.5939-.9559 5.081-.6137 8.822-1.3454 11.2227-2.1951.0232-.8733.035-1.428.035-1.664 0-2.5965-.5944-5.5034-1.783-6.5656-1.6083-1.4398-3.9974-2.1597-7.1672-2.1597-2.9601 0-5.1452.5252-6.5554 1.5755-1.41 1.0504-3.1389 3.0072-3.129 6.654l-5.6887-.017c.5594-2.6672 1.0154-5.6537 2.2974-7.2942 1.2819-1.6404 3.1349-2.9032 5.5589-3.7884 2.424-.8851 5.2326-1.3277 8.4258-1.3277 3.1698 0 5.2604.3777 7.2416 1.133 1.9811.7553 3.2993 1.9132 4.2317 3.058.9322 1.1447 1.377 2.3826 1.75 4.1293.2097 1.0858.3146 3.0449.3147 5.8773v8.4973c0 5.9246-.2124 7.732.0556 9.3016.268 1.5697 1.8374 2.2431 3.8768 1.8818l.0794 4.8597s-4.8966.2932-6.5829-.3569c-1.3755-.5302-2.2499-2.7985-2.4363-4.5688zm-.5244-14.8565c-2.2842.9442-4.9484.8461-9.586 1.784-2.9336.6549-4.209.872-5.2812 1.344-1.0721.472-3.1587.7055-4.6298 2.4868-1.1825 1.432-1.0126 2.8877-1.0126 4.482 0 1.6994 1.3972 3.1157 2.6675 4.2486 1.2702 1.133 3.7525 1.0068 6.1998 1.0068 2.424 0 4.58-.537 6.468-1.611 1.8879-1.074 3.2747-2.5433 4.1604-4.408.6759-1.4398 1.0139-3.5641 1.0139-6.373zm40.0958 19.7717v-4.7443c-2.3541 3.7294-9.002 5.594-13.5703 5.594-2.96 0-5.6813-.826-8.1635-2.4783-2.4823-1.6523-4.4052-3.9596-5.7687-6.9218-1.3635-2.9623-2.0453-6.3671-2.0453-10.2145 0-3.753.6177-7.1578 1.853-10.2145 1.2353-3.0567 3.0883-5.3993 5.5589-7.028 2.4706-1.6286 5.2326-2.443 8.286-2.443 2.2375 0 7.4169.478 9.165 1.434 1.748.9559 3.1698 2.201 4.2653 3.7352V.0202h5.427v51.9045zm-24.8433-18.765c0 4.8152 1.0022 8.4148 3.0067 10.7988 2.0045 2.384 6.5255 4.5556 9.2525 4.5556 2.7503 0 7.8817-2.1186 9.8046-4.3963 1.9229-2.2778 2.8843-5.7534 2.8844-10.427 0-5.1455-.979-8.9221-2.9368-11.3297-1.9579-2.4076-6.5772-4.787-9.444-4.787-2.797 0-7.8767 2.3322-9.753 4.6454-1.8763 2.3131-2.8144 5.96-2.8144 10.9403zm34.2148 6.0397l4.7046-.0606c.3496 2.5256 1.7636 5.2448 3.3602 6.5903 1.5966 1.3454 4.4161 2.214 7.283 2.214 2.8901 0 5.4263-.498 6.8248-1.69 1.3985-1.192 3.1754-2.1007 3.1754-4.5874 0-1.4399-.8136-3.2586-2.049-4.0848-.8623-.5664-3.5945-1.7762-7.0207-2.6495-4.615-1.1802-7.422-1.5153-9.2051-2.3768-1.783-.8615-3.7227-1.8576-4.6434-3.38-.9207-1.5225-1.381-3.2042-1.381-5.0453 0-1.6759.3788-3.2278 1.1363-4.6559.7575-1.428 1.7888-2.614 3.094-3.5582.979-.7317 1.8235-1.3513 3.5134-1.8588 1.6898-.5075 3.502-.7612 5.4365-.7612 2.9135 0 5.4715.4249 7.6741 1.2746 2.2026.8497 3.8283 2.0004 4.8772 3.452 1.0488 1.4517 1.8203 4.3727 2.2166 6.8039l-4.6837-.032c-.2798-1.9355-2.1184-4.8177-3.4586-5.9035-1.3402-1.0857-4.7035-1.4327-7.1508-1.4327-2.8902 0-4.2671 1.2677-5.5024 2.2354-1.2353.9678-1.853 2.1008-1.853 3.399 0 .826-.0376 1.7655.4753 2.4264.5127.6845 1.7087 1.7409 2.8042 2.1893.6293.236 2.7762 1.0729 5.8528 1.9226 4.4518 1.2038 7.4596 1.5035 9.2194 2.2706 1.7597.7671 3.1407 1.8824 4.143 3.3458 1.0021 1.4634 1.5032 3.281 1.5033 5.4524 0 2.1244-.6119 4.1248-1.8355 6.0013-1.2237 1.8765-2.9893 3.3281-5.2967 4.3549-2.3075 1.0267-4.918 1.5401-7.8315 1.5401-4.8247 0-8.5015-1.015-11.0304-3.0449-2.5289-2.0299-3.6531-6.362-4.3523-10.351z" letter-spacing="-3.06"/></g></svg>